:FULLY-SPECIFIED
:FORCE-ALL-JOINTS-BE-3DOF
:DEGREES
1
root -2.95645 16.8291 -36.2757 3.79203 -0.409345 -2.77144
lfemur -18.1857 -3.85478 -7.37129
ltibia 37.6337 0 0
lfoot -17.8071 6.78532 0
ltoes -26.1578 0 0
rfemur -19.1521 0.15077 14.7318
rtibia 40.3652 0 0
rfoot -23.1652 -2.86285 0
rtoes -21.0274 0 0
lowerback 7.02591 2.55716 -1.97249
upperback -3.14202 3.31583 1.27229
thorax -7.43554 1.75645 1.99661
lowerneck -4.68188 -4.04088 -6.84108
upperneck 4.69893 -5.30737 6.47589
head 2.76948 -2.5844 3.14763
lclavicle 1.91563e-15 -9.24349e-15 0
lhumerus -27.0689 -5.33108 89.6453
lradius 25.7364 0 0
lwrist -30.6252 0 0
lhand -28.8405 29.9909 0
lfingers 7.12502 0 0
lthumb -2.19771 59.9594 0
rclavicle 1.91563e-15 -9.24349e-15 0
rhumerus -32.8355 4.71181 -81.727
rradius 32.9783 0 0
rwrist 3.84135 0 0
rhand -24.1523 -25.0894 0
rfingers 7.12502 0 0
rthumb 2.33029 -55.0564 0
2
root -2.95809 16.8272 -36.279 3.75847 -0.444025 -2.76831
lfemur -18.1692 -3.61585 -7.41276
ltibia 37.6619 0 0
lfoot -17.8258 6.81569 0
ltoes -25.9351 0 0
rfemur -19.1662 0.0444952 14.7329
rtibia 40.4159 0 0
rfoot -23.1264 -2.64443 0
rtoes -20.468 0 0
lowerback 7.08801 2.54936 -1.9636
upperback -3.12458 3.30559 1.2761
thorax -7.45193 1.75091 1.99502
lowerneck -4.66458 -4.02867 -6.84082
upperneck 4.69142 -5.2919 6.4791
head 2.76264 -2.5769 3.14961
lclavicle 2.0107e-15 -9.49789e-15 0
lhumerus -27.0326 -5.32697 89.6639
lradius 25.7492 0 0
lwrist -30.5885 0 0
lhand -28.8376 29.9852 0
lfingers 7.12502 0 0
lthumb -2.19487 59.9537 0
rclavicle 2.0107e-15 -9.49789e-15 0
rhumerus -32.7881 4.65518 -81.6902
rradius 32.8886 0 0
rwrist 3.83368 0 0
rhand -24.0844 -25.1782 0
rfingers 7.12502 0 0
rthumb 2.39586 -55.1443 0
3
root -2.95973 16.8253 -36.2824 3.72491 -0.478705 -2.76517
lfemur -18.1527 -3.37692 -7.45423
ltibia 37.6901 0 0
lfoot -17.8446 6.84605 0
ltoes -25.7124 0 0
rfemur -19.1804 -0.0617795 14.734
rtibia 40.4667 0 0
rfoot -23.0877 -2.426 0
rtoes -19.9085 0 0
lowerback 7.15011 2.54157 -1.95472
upperback -3.10713 3.29535 1.27991
thorax -7.46831 1.74537 1.99343
lowerneck -4.64728 -4.01645 -6.84055
upperneck 4.68391 -5.27644 6.48231
head 2.75579 -2.5694 3.15159
lclavicle 2.10576e-15 -9.75228e-15 0
lhumerus -26.9964 -5.32286 89.6825
lradius 25.762 0 0
lwrist -30.5518 0 0
lhand -28.8346 29.9795 0
lfingers 7.12502 0 0
lthumb -2.19204 59.948 0
rclavicle 2.10576e-15 -9.75228e-15 0
rhumerus -32.7407 4.59855 -81.6535
rradius 32.7988 0 0
rwrist 3.826 0 0
rhand -24.0165 -25.2671 0
rfingers 7.12502 0 0
rthumb 2.46144 -55.2322 0
4
root -2.96137 16.8234 -36.2857 3.69135 -0.513386 -2.76204
lfemur -18.1362 -3.13799 -7.49569
ltibia 37.7182 0 0
lfoot -17.8633 6.87642 0
ltoes -25.4898 0 0
rfemur -19.1945 -0.168054 14.735
rtibia 40.5174 0 0
rfoot -23.0489 -2.20758 0
rtoes -19.3491 0 0
lowerback 7.21222 2.53377 -1.94583
upperback -3.08969 3.28511 1.28373
thorax -7.4847 1.73982 1.99184
lowerneck -4.62999 -4.00424 -6.84029
upperneck 4.67641 -5.26097 6.48552
head 2.74895 -2.56189 3.15357
lclavicle 2.20083e-15 -1.00067e-14 0
lhumerus -26.9601 -5.31875 89.7011
lradius 25.7747 0 0
lwrist -30.515 0 0
lhand -28.8317 29.9738 0
lfingers 7.12502 0 0
lthumb -2.1892 59.9424 0
rclavicle 2.20083e-15 -1.00067e-14 0
rhumerus -32.6934 4.54193 -81.6167
rradius 32.7091 0 0
rwrist 3.81833 0 0
rhand -23.9486 -25.3559 0
rfingers 7.12502 0 0
rthumb 2.52701 -55.3201 0
5
root -2.96301 16.8215 -36.289 3.65779 -0.548066 -2.7589
lfemur -18.1197 -2.89906 -7.53716
ltibia 37.7464 0 0
lfoot -17.882 6.90678 0
ltoes -25.2671 0 0
rfemur -19.2087 -0.274329 14.7361
rtibia 40.5681 0 0
rfoot -23.0102 -1.98915 0
rtoes -18.7896 0 0
lowerback 7.27432 2.52598 -1.93695
upperback -3.07224 3.27487 1.28754
thorax -7.50108 1.73428 1.99025
lowerneck -4.61269 -3.99202 -6.84002
upperneck 4.6689 -5.24551 6.48872
head 2.74211 -2.55439 3.15555
lclavicle 2.29589e-15 -1.02611e-14 0
lhumerus -26.9238 -5.31464 89.7196
lradius 25.7875 0 0
lwrist -30.4783 0 0
lhand -28.8288 29.9681 0
lfingers 7.12502 0 0
lthumb -2.18637 59.9367 0
rclavicle 2.29589e-15 -1.02611e-14 0
rhumerus -32.646 4.4853 -81.58
rradius 32.6194 0 0
rwrist 3.81065 0 0
rhand -23.8807 -25.4448 0
rfingers 7.12502 0 0
rthumb 2.59258 -55.4081 0
6
root -2.96465 16.8196 -36.2924 3.62423 -0.582746 -2.75577
lfemur -18.1032 -2.66013 -7.57863
ltibia 37.7746 0 0
lfoot -17.9008 6.93715 0
ltoes -25.0444 0 0
rfemur -19.2228 -0.380604 14.7372
rtibia 40.6188 0 0
rfoot -22.9714 -1.77073 0
rtoes -18.2302 0 0
lowerback 7.33642 2.51818 -1.92806
upperback -3.0548 3.26463 1.29135
thorax -7.51747 1.72874 1.98866
lowerneck -4.59539 -3.97981 -6.83976
upperneck 4.66139 -5.23004 6.49193
head 2.73526 -2.54689 3.15753
lclavicle 2.39096e-15 -1.05155e-14 0
lhumerus -26.8876 -5.31053 89.7382
lradius 25.8003 0 0
lwrist -30.4416 0 0
lhand -28.8258 29.9624 0
lfingers 7.12502 0 0
lthumb -2.18353 59.931 0
rclavicle 2.39096e-15 -1.05155e-14 0
rhumerus -32.5986 4.42867 -81.5432
rradius 32.5296 0 0
rwrist 3.80298 0 0
rhand -23.8128 -25.5336 0
rfingers 7.12502 0 0
rthumb 2.65815 -55.496 0
7
root -2.96628 16.8177 -36.2957 3.59067 -0.617426 -2.75263
lfemur -18.0867 -2.42119 -7.6201
ltibia 37.8028 0 0
lfoot -17.9195 6.96751 0
ltoes -24.8217 0 0
rfemur -19.237 -0.486879 14.7383
rtibia 40.6696 0 0
rfoot -22.9327 -1.5523 0
rtoes -17.6707 0 0
lowerback 7.39852 2.51039 -1.91918
upperback -3.03736 3.2544 1.29516
thorax -7.53385 1.7232 1.98707
lowerneck -4.57809 -3.96759 -6.8395
upperneck 4.65388 -5.21458 6.49514
head 2.72842 -2.53939 3.15951
lclavicle 2.48603e-15 -1.07699e-14 0
lhumerus -26.8513 -5.30642 89.7568
lradius 25.8131 0 0
lwrist -30.4049 0 0
lhand -28.8229 29.9567 0
lfingers 7.12502 0 0
lthumb -2.1807 59.9253 0
rclavicle 2.48603e-15 -1.07699e-14 0
rhumerus -32.5512 4.37204 -81.5065
rradius 32.4399 0 0
rwrist 3.7953 0 0
rhand -23.7449 -25.6225 0
rfingers 7.12502 0 0
rthumb 2.72373 -55.5839 0
8
root -2.96792 16.8158 -36.299 3.55711 -0.652107 -2.7495
lfemur -18.0702 -2.18226 -7.66156
ltibia 37.831 0 0
lfoot -17.9382 6.99788 0
ltoes -24.5991 0 0
rfemur -19.2511 -0.593153 14.7393
rtibia 40.7203 0 0
rfoot -22.8939 -1.33388 0
rtoes -17.1113 0 0
lowerback 7.46063 2.50259 -1.91029
upperback -3.01991 3.24416 1.29897
thorax -7.55024 1.71765 1.98548
lowerneck -4.56079 -3.95538 -6.83923
upperneck 4.64638 -5.19911 6.49835
head 2.72158 -2.53188 3.16149
lclavicle 2.58109e-15 -1.10243e-14 0
lhumerus -26.815 -5.30231 89.7754
lradius 25.8258 0 0
lwrist -30.3682 0 0
lhand -28.82 29.951 0
lfingers 7.12502 0 0
lthumb -2.17786 59.9197 0
rclavicle 2.58109e-15 -1.10243e-14 0
rhumerus -32.5039 4.31541 -81.4697
rradius 32.3502 0 0
rwrist 3.78763 0 0
rhand -23.677 -25.7113 0
rfingers 7.12502 0 0
rthumb 2.7893 -55.6718 0
9
root -2.96956 16.8139 -36.3024 3.52355 -0.686787 -2.74637
lfemur -18.0537 -1.94333 -7.70303
ltibia 37.8591 0 0
lfoot -17.957 7.02824 0
ltoes -24.3764 0 0
rfemur -19.2652 -0.699428 14.7404
rtibia 40.771 0 0
rfoot -22.8551 -1.11546 0
rtoes -16.5518 0 0
lowerback 7.52273 2.49479 -1.9014
upperback -3.00247 3.23392 1.30279
thorax -7.56662 1.71211 1.98389
lowerneck -4.5435 -3.94316 -6.83897
upperneck 4.63887 -5.18365 6.50156
head 2.71473 -2.52438 3.16347
lclavicle 2.67616e-15 -1.12787e-14 0
lhumerus -26.7788 -5.2982 89.794
lradius 25.8386 0 0
lwrist -30.3314 0 0
lhand -28.817 29.9453 0
lfingers 7.12502 0 0
lthumb -2.17503 59.914 0
rclavicle 2.67616e-15 -1.12787e-14 0
rhumerus -32.4565 4.25879 -81.433
rradius 32.2604 0 0
rwrist 3.77996 0 0
rhand -23.6091 -25.8001 0
rfingers 7.12502 0 0
rthumb 2.85487 -55.7597 0
10
root -2.9712 16.812 -36.3057 3.48999 -0.721467 -2.74323
lfemur -18.0372 -1.7044 -7.7445
ltibia 37.8873 0 0
lfoot -17.9757 7.05861 0
ltoes -24.1537 0 0
rfemur -19.2794 -0.805703 14.7415
rtibia 40.8218 0 0
rfoot -22.8164 -0.897031 0
rtoes -15.9924 0 0
lowerback 7.58483 2.487 -1.89252
upperback -2.98503 3.22368 1.3066
thorax -7.58301 1.70657 1.9823
lowerneck -4.5262 -3.93095 -6.83871
upperneck 4.63136 -5.16818 6.50477
head 2.70789 -2.51688 3.16545
lclavicle 2.77123e-15 -1.15331e-14 0
lhumerus -26.7425 -5.29409 89.8126
lradius 25.8514 0 0
lwrist -30.2947 0 0
lhand -28.8141 29.9396 0
lfingers 7.12502 0 0
lthumb -2.17219 59.9083 0
rclavicle 2.77123e-15 -1.15331e-14 0
rhumerus -32.4091 4.20216 -81.3962
rradius 32.1707 0 0
rwrist 3.77228 0 0
rhand -23.5412 -25.889 0
rfingers 7.12502 0 0
rthumb 2.92045 -55.8476 0
